<?xml version="1.0" standalone="no"?>
<!DOCTYPE svg PUBLIC "-//W3C//DTD SVG 20010904//EN"
 "http://www.w3.org/TR/2001/REC-SVG-20010904/DTD/svg10.dtd">
<svg version="1.0" xmlns="http://www.w3.org/2000/svg"
 width="800.000000pt" height="800.000000pt" viewBox="0 0 800.000000 800.000000"
 preserveAspectRatio="xMidYMid meet">

<g transform="translate(0.000000,800.000000) scale(0.100000,-0.100000)"
fill="#343b40" stroke="none">
<path d="M3610 7273 c-358 -19 -713 -70 -941 -137 -262 -77 -467 -194 -639
-366 -335 -334 -468 -819 -405 -1474 18 -188 26 -239 115 -780 76 -461 150
-949 150 -994 0 -16 -9 -37 -20 -47 -19 -17 -22 -17 -97 5 -107 32 -230 25
-323 -17 -123 -56 -214 -168 -267 -328 -24 -72 -27 -94 -27 -230 1 -166 14
-243 64 -372 132 -343 401 -552 744 -579 44 -4 86 -11 93 -16 6 -5 24 -46 39
-91 58 -174 124 -287 233 -400 113 -117 289 -237 348 -237 35 0 83 38 83 66 0
14 38 44 55 44 6 0 49 -25 95 -56 154 -101 455 -234 530 -234 38 0 68 27 84
75 19 55 46 67 105 49 185 -58 436 -105 559 -105 81 0 84 -1 110 -32 110 -128
181 -186 285 -235 159 -76 374 -74 580 4 135 52 301 183 404 319 52 69 120
201 152 295 28 80 34 87 81 100 58 16 158 142 264 333 40 72 66 88 106 67 31
-17 87 -4 105 24 28 42 55 158 66 281 6 66 13 125 14 131 2 6 34 32 72 57 199
132 360 411 413 713 20 114 9 310 -24 411 -62 192 -210 304 -385 290 -50 -4
-83 -14 -144 -46 -74 -38 -81 -40 -102 -27 -26 17 -24 9 -65 311 -150 1115
-283 1822 -421 2230 -117 346 -237 521 -433 634 -346 198 -826 328 -1331 361
-152 10 -199 10 -325 3z m529 -79 c141 -16 170 -23 189 -46 6 -8 23 -76 37
-150 77 -419 244 -750 535 -1061 212 -227 549 -445 842 -546 53 -18 102 -39
108 -46 7 -8 21 -66 32 -129 19 -108 19 -118 4 -141 -27 -41 -54 -40 -188 5
-211 72 -417 181 -598 318 -101 76 -315 286 -405 397 -162 200 -331 479 -450
743 -32 73 -62 132 -65 132 -3 0 -25 -78 -49 -172 -54 -220 -113 -384 -206
-573 -127 -261 -270 -460 -475 -665 -208 -209 -422 -362 -685 -490 -233 -114
-461 -189 -714 -236 -173 -32 -220 -33 -241 -7 -23 29 -66 304 -51 331 14 26
16 26 176 52 909 145 1611 687 1820 1406 57 195 68 295 69 596 1 152 3 278 6
281 33 28 62 29 309 1z m-558 -5 c21 -21 21 -27 16 -248 -10 -440 -93 -712
-307 -1000 -275 -371 -768 -655 -1337 -771 -258 -52 -253 -56 -273 172 -11
123 -4 160 29 173 9 4 69 8 133 11 348 11 653 148 913 409 132 132 222 256
309 426 108 208 161 365 216 639 17 85 36 162 41 172 13 24 60 34 172 37 56 1
70 -2 88 -20z m175 -4 c23 -35 37 -220 29 -385 -7 -143 -21 -268 -24 -215 -3
35 -19 78 -21 55 -1 -8 -3 -22 -5 -30 -1 -8 -6 -35 -10 -60 -9 -62 -52 -222
-80 -302 -35 -97 -109 -240 -177 -341 -59 -88 -70 -103 -163 -206 -74 -84 -73
-83 -170 -166 -205 -176 -488 -334 -764 -426 -140 -46 -370 -101 -476 -114
-130 -15 -137 -16 -132 -36 3 -11 2 -19 -3 -19 -15 0 -29 26 -35 65 -10 68 10
81 150 105 484 82 954 303 1261 593 45 42 85 73 89 69 5 -4 5 -2 2 4 -7 12 69
109 86 109 5 0 11 9 13 20 2 11 12 28 24 37 11 9 22 21 23 25 1 4 5 7 9 6 4
-2 4 5 1 14 -5 12 -3 14 8 8 8 -4 11 -5 7 0 -7 7 18 65 28 65 3 0 2 -5 -2 -12
-4 -7 -3 -8 4 -4 6 4 9 12 6 19 -2 7 3 21 12 32 8 11 12 14 8 6 -5 -9 -3 -12
5 -7 6 4 9 16 6 26 -3 10 0 22 6 26 8 5 9 3 4 -6 -5 -8 -4 -11 3 -7 5 4 8 17
4 29 -4 16 -2 19 8 13 9 -6 12 -4 8 6 -3 8 1 26 9 40 8 13 12 16 9 7 -3 -10
-2 -18 3 -18 5 0 11 9 14 20 3 11 1 20 -4 20 -5 0 0 9 11 20 11 11 20 28 20
38 0 14 -2 15 -10 2 -6 -9 -10 -10 -10 -3 0 7 9 17 20 23 11 6 20 20 19 33 0
21 -1 21 -9 2 -10 -24 -12 -10 -3 23 4 16 8 20 13 12 11 -18 33 56 26 86 -7
28 3 96 13 90 3 -3 7 14 8 37 1 23 5 157 10 297 6 208 11 254 22 252 8 -2 11
3 8 11 -16 41 63 51 89 12z m-509 -41 c13 -21 13 -33 -2 -119 -10 -52 -21 -93
-25 -90 -5 3 -6 -3 -4 -12 2 -10 0 -31 -6 -48 l-10 -30 5 33 c10 69 -25 24
-49 -63 -40 -145 -128 -350 -208 -483 -159 -266 -374 -476 -605 -591 -162 -81
-308 -118 -510 -128 -103 -5 -123 -9 -123 -22 -1 -12 -5 -10 -20 8 -36 42 -15
119 30 113 20 -2 22 -1 10 7 -11 8 12 11 81 11 270 0 538 107 747 295 33 30
63 51 67 47 5 -4 5 -2 2 4 -7 11 20 41 32 37 3 -2 6 1 6 6 0 19 46 71 57 65 7
-4 8 -3 4 5 -9 13 38 73 49 63 5 -4 5 -1 1 5 -4 7 5 29 20 50 32 44 51 65 39
44 -6 -10 -4 -12 4 -7 7 4 10 13 8 19 -5 15 32 91 40 83 4 -3 15 8 25 24 22
36 24 52 3 24 -8 -10 -15 -16 -15 -12 0 14 43 97 49 93 3 -1 7 7 7 18 1 12 18
67 37 122 34 98 64 211 87 329 8 41 15 55 21 45 6 -10 9 -8 10 11 1 14 1 30 0
36 -2 17 20 32 54 36 44 5 64 -2 82 -28z m-244 -5 c45 -24 47 -55 13 -202
-124 -519 -416 -914 -796 -1078 -111 -48 -190 -67 -327 -81 -131 -13 -187 -3
-205 37 -14 31 11 193 53 341 119 424 403 728 829 887 81 30 287 86 370 100
14 2 29 5 33 6 5 0 18 -4 30 -10z m1487 -17 c16 -13 28 -48 51 -147 83 -373
197 -599 440 -874 174 -197 392 -358 666 -492 89 -43 166 -87 171 -96 17 -33
-16 -83 -54 -83 -24 0 -198 70 -191 77 3 2 16 -1 30 -8 18 -8 30 -8 43 0 18
10 18 11 -3 17 -13 3 -56 23 -95 43 -347 176 -621 419 -821 728 -69 106 -177
310 -177 334 0 8 -4 19 -8 25 -5 5 -19 38 -31 74 -37 104 -52 133 -63 118 -7
-9 -8 -5 -5 14 2 15 0 25 -4 22 -5 -3 -9 -4 -9 -2 0 2 -9 49 -20 106 -21 108
-18 130 18 151 24 15 37 13 62 -7z m224 -43 c39 -12 78 -28 88 -36 9 -8 35
-72 58 -141 52 -161 150 -362 231 -477 129 -181 331 -355 540 -465 53 -27 101
-56 107 -63 12 -15 52 -175 52 -209 0 -27 -37 -68 -63 -68 -31 0 -233 108
-362 194 -94 63 -152 112 -270 230 -259 260 -395 485 -480 792 -50 183 -53
207 -22 238 31 31 32 31 121 5z m289 -110 c17 -8 45 -54 100 -167 98 -203 179
-325 292 -439 l91 -92 39 9 c22 5 43 6 46 2 4 -4 14 -31 23 -59 13 -38 28 -61
57 -84 45 -35 52 -76 19 -109 -26 -26 -44 -25 -97 5 -41 25 -62 46 -25 26 11
-6 21 -5 29 4 9 10 2 17 -30 34 -23 11 -56 33 -74 48 -17 16 -51 44 -74 63
-117 96 -236 235 -319 375 -29 50 -60 101 -69 115 -8 14 -14 27 -14 30 3 10
-30 39 -38 35 -9 -6 -49 97 -56 146 -4 30 -1 39 18 53 27 19 49 20 82 5z m140
-145 c-6 -17 -36 -3 -39 19 -2 13 2 14 21 5 14 -6 21 -16 18 -24z m138 8 c68
-44 116 -89 164 -156 51 -72 155 -280 155 -310 0 -22 -43 -76 -61 -76 -60 0
-248 221 -354 415 -25 45 -45 87 -45 94 0 21 48 61 73 61 13 0 43 -13 68 -28z
m-2084 -14 c-3 -8 -6 -5 -6 6 -1 11 2 17 5 13 3 -3 4 -12 1 -19z m-10 -40 c-3
-8 -6 -5 -6 6 -1 11 2 17 5 13 3 -3 4 -12 1 -19z m1801 -83 c-3 -3 -9 2 -12
12 -6 14 -5 15 5 6 7 -7 10 -15 7 -18z m-1231 -180 c-4 -8 -11 -15 -17 -15 -7
0 -7 6 0 21 13 23 26 19 17 -6z m520 -137 c245 -490 553 -855 931 -1103 183
-120 349 -196 572 -261 63 -19 120 -40 127 -47 24 -25 25 -62 2 -91 -20 -26
-26 -28 -68 -22 -58 8 -283 67 -277 73 4 4 82 -14 205 -47 44 -12 28 1 -29 24
-25 10 -60 24 -78 32 -18 8 -40 14 -48 14 -29 0 -154 52 -334 139 -275 134
-590 423 -785 721 -108 166 -101 154 -178 305 -52 101 -69 124 -98 125 -32 0
-50 -29 -84 -144 -46 -152 -80 -235 -158 -393 -139 -282 -362 -566 -577 -735
-30 -23 -61 -48 -68 -55 -27 -26 -189 -128 -300 -189 -299 -163 -766 -311
-1105 -350 -55 -6 -59 -8 -54 -30 5 -28 0 -30 -25 -7 -23 21 -23 75 0 101 13
15 47 25 149 41 678 110 1268 450 1682 970 44 56 85 110 91 122 6 11 16 16 22
13 7 -4 8 -3 4 4 -4 7 10 38 32 69 21 32 51 81 67 108 15 28 34 54 42 58 7 5
11 12 8 17 -7 11 37 101 51 103 5 1 9 10 8 20 0 9 3 17 8 17 12 0 50 88 43 99
-3 5 -1 20 4 33 9 21 10 21 11 3 0 -21 40 57 40 80 0 6 8 27 17 46 9 18 17 48
17 65 1 18 4 30 8 28 12 -7 19 34 13 73 -3 25 -2 31 3 19 14 -32 25 0 17 50
-12 82 18 49 92 -98z m-690 50 c-3 -8 -6 -5 -6 6 -1 11 2 17 5 13 3 -3 4 -12
1 -19z m712 -454 c352 -631 865 -1025 1506 -1154 61 -12 118 -26 127 -31 21
-12 24 -19 47 -172 29 -188 18 -202 -146 -186 -416 39 -752 190 -1016 456
-182 184 -374 485 -506 792 -12 29 -26 49 -31 45 -4 -5 -24 -88 -44 -184 -150
-705 -410 -1005 -1116 -1283 -365 -144 -824 -263 -1130 -293 -89 -8 -101 6
-124 143 -25 157 -25 157 189 193 399 67 827 225 1160 427 423 258 766 691
950 1198 49 137 53 145 67 145 7 0 37 -43 67 -96z m69 -510 c120 -241 266
-448 432 -614 273 -274 615 -424 1046 -461 117 -10 131 -13 152 -35 23 -26 28
-59 13 -83 -6 -10 -24 -12 -72 -7 -35 3 -80 8 -99 9 -19 2 -44 7 -55 10 -11 4
-68 13 -127 22 -136 18 -392 86 -414 108 -4 4 -14 7 -21 7 -24 0 -215 100
-278 145 -94 66 -122 92 -240 210 -115 116 -224 260 -272 357 -32 65 -61 87
-95 71 -18 -8 -31 -35 -57 -114 -33 -100 -127 -306 -173 -379 -67 -106 -181
-232 -278 -304 -30 -22 -57 -43 -60 -46 -23 -25 -194 -117 -300 -162 -144 -61
-185 -77 -292 -112 -377 -124 -820 -226 -1082 -248 -107 -9 -134 -14 -148 -30
-17 -18 -17 -18 -28 2 -11 20 -11 70 0 60 3 -3 18 7 33 21 24 21 45 28 125 38
515 65 1217 308 1565 541 126 84 280 226 345 320 45 64 73 99 57 71 -6 -10 -4
-12 4 -7 7 4 10 13 8 19 -7 19 42 109 55 101 8 -5 9 -2 5 9 -8 21 2 49 15 41
5 -3 9 0 7 7 -3 26 1 40 10 35 5 -4 7 4 3 16 -3 14 -1 19 6 14 8 -4 10 -2 6 7
-3 8 2 17 11 21 13 4 16 14 11 34 -3 15 -3 21 0 14 7 -15 24 -6 24 14 0 8 -4
12 -10 9 -12 -7 -12 -3 -4 19 3 9 9 14 13 11 4 -2 17 23 28 56 11 32 17 59 12
59 -5 0 -9 -7 -9 -17 0 -9 -2 -14 -5 -11 -10 9 6 58 16 52 6 -3 8 6 5 20 -6
36 4 72 16 54 7 -9 8 -3 4 17 -6 38 13 115 28 115 6 0 35 -48 64 -106z m36
-455 c51 -86 176 -237 281 -337 319 -307 672 -447 1207 -478 97 -5 120 -10
134 -26 13 -13 25 -74 45 -226 33 -243 33 -233 16 -257 -13 -17 -43 -18 -568
-20 -560 -2 -666 -7 -1056 -50 -163 -18 -627 -85 -867 -126 -457 -77 -1028
-212 -1286 -304 -36 -12 -89 -30 -117 -38 l-53 -16 -46 62 c-26 34 -61 77 -78
95 -28 30 -32 43 -53 185 -37 257 -43 245 128 264 453 48 1119 232 1494 413
368 177 599 430 741 812 32 87 49 96 78 47z m1136 -69 c8 -5 11 -10 5 -10 -5
0 -17 5 -25 10 -8 5 -10 10 -5 10 6 0 17 -5 25 -10z m1040 -1211 c101 -45 177
-155 206 -297 24 -114 15 -318 -19 -433 -72 -240 -202 -451 -337 -544 -73 -51
-100 -23 -100 102 0 47 5 60 39 106 71 95 104 173 108 257 5 88 -14 129 -72
157 -29 14 -41 15 -75 4 -51 -15 -76 -3 -84 44 -8 42 18 97 89 186 54 69 111
109 164 116 52 7 83 -12 116 -75 l26 -47 -6 40 c-8 51 -37 98 -70 113 -69 32
-151 -1 -242 -94 -52 -54 -67 -65 -87 -60 -21 5 -25 17 -45 113 -30 153 -30
153 33 218 105 107 245 144 356 94z m-1023 -114 c8 -22 -94 -172 -261 -385
-245 -311 -278 -342 -290 -262 -3 20 -8 58 -12 85 -3 26 -10 47 -14 47 -22 0
-21 -209 2 -254 9 -17 11 -16 37 8 15 14 30 26 34 26 4 0 47 -40 95 -88 93
-94 157 -133 253 -153 112 -24 236 11 323 91 206 190 182 584 -49 816 -70 69
-62 78 70 82 78 2 115 -1 127 -10 30 -23 115 -175 148 -265 44 -124 60 -211
61 -333 1 -263 -103 -467 -286 -561 -39 -20 -92 -42 -120 -48 -118 -28 -126
-32 -135 -56 -11 -30 -6 -47 37 -106 116 -163 179 -418 154 -621 -63 -494
-436 -859 -881 -860 -169 -1 -287 45 -411 160 -117 108 -189 225 -247 398 -64
192 -94 445 -74 634 16 150 4 160 -163 125 -280 -58 -504 -38 -700 63 -107 55
-221 173 -273 282 -92 194 -96 410 -11 630 37 96 108 218 156 268 35 35 46 40
134 57 l96 18 68 -28 c92 -39 98 -56 50 -134 -58 -97 -78 -162 -83 -278 -3
-84 0 -114 16 -170 68 -222 264 -363 506 -363 148 0 271 42 392 133 61 46 137
134 168 195 19 37 33 39 78 12 18 -11 36 -20 41 -20 21 0 -6 243 -32 288 -8
12 -10 -14 -11 -95 0 -73 -4 -113 -11 -113 -6 0 -128 71 -272 157 -178 106
-344 196 -517 278 -156 75 -256 128 -258 138 -2 9 5 20 15 25 16 9 273 53 481
82 l74 10 96 -56 c144 -85 299 -187 466 -308 l149 -108 49 53 c76 84 216 273
298 401 47 72 83 118 95 121 11 2 91 5 178 6 134 1 159 -1 164 -14z m118 -127
c157 -170 201 -439 103 -632 -31 -61 -103 -131 -161 -157 -42 -19 -69 -24
-142 -24 -77 1 -99 5 -149 28 -33 15 -79 44 -104 64 -50 41 -122 128 -122 148
0 20 111 148 120 138 4 -4 13 -24 19 -44 6 -20 24 -48 39 -62 88 -84 185 -4
198 164 5 73 -1 106 -36 194 -12 28 -9 35 45 115 72 106 94 130 116 130 9 0
43 -28 74 -62z m-3860 -92 c64 -31 97 -56 165 -125 52 -52 97 -110 116 -146
30 -57 32 -67 38 -215 8 -186 21 -329 42 -470 13 -89 25 -147 69 -336 6 -26
-21 -59 -60 -74 -92 -35 -286 -30 -415 11 -262 83 -471 326 -547 635 -24 99
-24 327 0 413 30 109 74 186 143 250 88 83 140 102 269 98 93 -2 106 -6 180
-41z m1888 -150 c63 -30 117 -61 120 -69 3 -9 -3 -39 -15 -69 -23 -61 -28
-179 -9 -244 24 -89 97 -153 159 -139 64 14 116 95 128 201 8 67 17 84 48 84
12 0 87 -39 166 -87 111 -68 146 -93 148 -111 8 -58 -140 -217 -257 -276 -98
-50 -173 -69 -271 -69 -145 -1 -265 47 -360 142 -158 157 -179 398 -54 607 33
55 58 84 75 84 4 0 59 -24 122 -54z m2692 -208 c32 -15 55 -56 55 -100 0 -69
-65 -208 -98 -208 -31 0 -45 31 -64 140 l-19 113 23 24 c21 23 51 41 70 42 4
1 19 -4 33 -11z m-3425 -1741 c80 -52 100 -68 60 -47 -43 23 -160 100 -160
106 0 6 2 5 100 -59z m176 -105 c-5 -4 -66 26 -66 33 0 3 16 -3 35 -12 19 -9
33 -18 31 -21z"/>
<path d="M3630 6625 c0 -8 2 -15 4 -15 2 0 6 7 10 15 3 8 1 15 -4 15 -6 0 -10
-7 -10 -15z"/>
<path d="M3612 6520 c0 -14 2 -19 5 -12 2 6 2 18 0 25 -3 6 -5 1 -5 -13z"/>
<path d="M2875 6419 c-4 -6 -5 -12 -2 -15 2 -3 7 2 10 11 7 17 1 20 -8 4z"/>
<path d="M2802 6300 c-18 -29 -15 -38 4 -12 9 13 14 25 12 27 -2 2 -9 -5 -16
-15z"/>
<path d="M5660 5475 c14 -8 40 -14 58 -15 17 0 32 -4 32 -10 0 -5 5 -10 11
-10 17 0 1 18 -33 34 -17 9 -45 16 -62 16 l-31 -1 25 -14z"/>
<path d="M5580 6050 c-13 -8 -12 -10 3 -10 9 0 17 5 17 10 0 12 -1 12 -20 0z"/>
<path d="M5615 6040 c4 -6 11 -8 16 -5 14 9 11 15 -7 15 -8 0 -12 -5 -9 -10z"/>
<path d="M4287 5503 c-4 -3 -7 -13 -7 -22 1 -13 3 -13 11 2 11 19 8 33 -4 20z"/>
<path d="M4442 4340 c-292 -77 -407 -323 -227 -488 82 -77 185 -112 325 -112
256 0 464 146 464 325 -1 76 -26 127 -94 188 -108 97 -296 132 -468 87z m339
-59 c67 -25 140 -86 163 -135 32 -67 13 -170 -41 -219 -18 -16 -23 -16 -57 -2
-21 9 -35 11 -31 6 3 -6 2 -11 -4 -11 -5 0 -12 4 -15 8 -6 10 -88 8 -166 -4
-30 -5 -86 -9 -125 -9 -61 1 -81 6 -156 43 -47 23 -92 48 -99 57 -7 8 -18 15
-26 15 -18 0 -27 36 -15 59 16 28 13 35 -6 20 -15 -13 -15 -12 0 16 36 70 137
139 250 170 78 22 255 14 328 -14z m89 -381 c0 -5 -2 -10 -4 -10 -3 0 -8 5
-11 10 -3 6 -1 10 4 10 6 0 11 -4 11 -10z"/>
<path d="M5635 4072 c-126 -60 -117 -180 18 -249 69 -35 195 -44 262 -19 61
24 95 66 95 118 0 53 -32 95 -101 133 -46 25 -67 30 -144 32 -73 3 -98 0 -130
-15z m249 -53 c82 -38 110 -103 64 -147 -25 -22 -78 -40 -78 -26 0 12 -62 31
-146 44 -77 13 -110 35 -116 81 -5 34 5 45 59 65 52 20 157 11 217 -17z"/>
<path d="M3215 3882 c-170 -59 -241 -169 -165 -256 46 -52 110 -70 229 -64
110 5 191 35 249 91 64 61 76 109 42 165 -33 54 -106 82 -215 82 -59 -1 -107
-7 -140 -18z m218 -36 c64 -15 108 -48 106 -80 -1 -18 -2 -18 -6 -3 -4 16 -7
16 -27 -6 -12 -13 -59 -38 -104 -56 -92 -35 -164 -40 -231 -16 -23 8 -45 14
-49 14 -21 -3 -32 3 -32 17 0 8 -5 12 -11 8 -8 -4 -8 -1 0 14 25 48 116 96
208 112 70 11 82 11 146 -4z"/>
<path d="M4992 2553 c-16 -8 -40 -34 -54 -59 l-25 -45 -26 40 c-27 41 -56 55
-97 49 -75 -11 -92 -178 -26 -255 31 -36 41 -26 19 18 -36 72 -24 189 20 197
38 8 74 -35 112 -133 6 -16 10 -9 16 29 13 83 84 149 125 116 26 -22 16 -124
-21 -214 -6 -14 -5 -17 4 -11 26 16 61 109 61 163 0 95 -43 137 -108 105z"/>
<path d="M4445 2138 c-42 -104 -57 -175 -62 -298 -4 -94 -1 -142 11 -192 46
-196 183 -380 336 -452 54 -25 80 -31 156 -34 205 -9 376 93 477 285 99 188
103 443 11 624 l-26 53 -21 -30 c-11 -16 -52 -61 -91 -100 -80 -80 -145 -111
-252 -121 -143 -13 -319 82 -459 247 -27 32 -53 59 -56 59 -4 1 -15 -18 -24
-41z m208 -186 c18 -13 38 -27 46 -31 12 -7 4 -22 -36 -72 -28 -35 -64 -77
-81 -92 l-29 -28 -6 53 c-4 29 -7 100 -7 156 l0 104 41 -34 c22 -18 55 -43 72
-56z m601 -39 c-9 -72 -44 -245 -53 -261 -6 -10 -21 5 -58 55 -73 100 -96 134
-92 137 2 1 25 10 51 20 25 9 70 35 100 56 29 22 54 39 55 40 2 0 0 -21 -3
-47z m-318 -73 c24 0 44 -4 44 -8 0 -24 -152 -232 -169 -232 -10 0 -27 96 -36
207 l-6 71 61 -19 c34 -10 82 -19 106 -19z m-216 -390 c72 -12 189 -65 235
-108 38 -35 105 -113 105 -123 0 -4 -30 -12 -66 -19 -165 -31 -316 31 -426
176 -22 30 -38 57 -34 61 6 6 68 19 106 22 8 0 44 -4 80 -9z"/>
<path d="M1494 3138 c-44 -39 -70 -93 -78 -163 -7 -54 -1 -47 30 40 43 123
138 148 242 66 72 -57 192 -222 192 -265 0 -27 -31 -48 -62 -42 -39 8 -92 -16
-115 -50 -69 -106 81 -395 258 -493 l44 -25 -69 75 c-174 188 -247 359 -180
426 22 22 32 25 75 21 27 -3 72 -17 100 -32 28 -14 53 -26 55 -26 10 0 -49
137 -87 202 -147 254 -303 356 -405 266z"/>
</g>
</svg>
